<svg width="45" height="45" viewBox="0 0 45 45" fill="none" xmlns="http://www.w3.org/2000/svg">
<g clip-path="url(#clip0)">
<path d="M35.7694 71.5387C55.5243 71.5387 71.5387 55.5243 71.5387 35.7694C71.5387 16.0145 55.5243 0 35.7694 0C16.0145 0 0 16.0145 0 35.7694C0 55.5243 16.0145 71.5387 35.7694 71.5387Z" fill="#FBB040"/>
<path d="M67.6462 51.9862C64.7269 42.0919 61.7231 32.625 58.5731 29.1544C60.0244 25.5319 59.0737 20.5312 58.905 19.7212C59.8505 16.4901 60.2311 13.12 60.03 9.75937C59.8219 6.38437 58.905 2.07 55.53 0.455623C54.5365 -0.0726016 53.3629 -0.144413 52.3125 0.258748C49.1569 1.485 47.0981 6.68812 45.5625 10.485C45.1069 11.61 44.7131 12.6225 44.3869 13.2469C42.885 16.0875 41.6081 15.7894 41.6081 15.7894C41.4622 15.7418 41.302 15.7875 41.2031 15.9049C41.1042 16.0224 41.0864 16.188 41.1581 16.3237C41.449 16.8923 41.4798 17.5589 41.2425 18.1519C40.4663 18.1519 39.6338 18.2081 38.7619 18.2475C35.7637 18.449 32.7544 18.4132 29.7619 18.1406L29.4244 17.8256L29.3119 17.7244C28.0294 16.515 25.3125 13.9894 24.3 11.385C23.0625 8.19 19.8394 3.06562 16.5769 1.6875C15.648 1.24591 14.5763 1.21529 13.6238 1.60312C9.54563 3.33562 10.2488 13.1175 10.2488 13.5337C10.2461 13.5448 10.2461 13.5564 10.2488 13.5675C10.4625 14.9062 10.6088 17.01 10.2488 17.505C10.1399 17.6586 10.159 17.8686 10.2938 18C11.0042 18.8068 11.4738 19.7969 11.6494 20.8575C11.7258 21.5447 11.7465 22.237 11.7113 22.9275C11.6775 25.3856 11.6269 29.0587 13.6856 31.0612C13.0838 32.3212 12.7631 33.1481 12.7519 33.1819C12.7295 33.2571 12.7295 33.3372 12.7519 33.4125C12.7856 33.5419 13.5281 36.5231 10.935 37.2881C10.7578 37.343 10.6468 37.5186 10.6735 37.7022C10.7001 37.8858 10.8564 38.0228 11.0419 38.025C11.6044 38.025 13.2413 38.1881 13.815 38.9137C14.0193 39.1901 14.0799 39.5473 13.9781 39.8756C12.8531 44.64 12.4706 48.0937 12.8531 50.13C12.8827 50.2768 12.9964 50.3922 13.1428 50.4239C13.2892 50.4557 13.4404 50.3977 13.5281 50.2762C13.7644 49.9444 14.3775 49.2919 14.7881 49.3706C15.0638 49.4269 15.3169 49.8712 15.4856 50.6025C15.6347 51.2589 15.6784 51.9349 15.615 52.605C15.4125 55.0012 15.2269 61.4981 18.3656 67.0444C26.8564 71.7601 36.8995 72.8209 46.1881 69.9832C55.4768 67.1455 63.2124 60.6531 67.6181 51.9975L67.6462 51.9862Z" fill="#231F20"/>
<path d="M31 19L34.3677 28.6738H45.2658L36.4491 34.6525L39.8168 44.3262L31 38.3475L22.1832 44.3262L25.5509 34.6525L16.7342 28.6738H27.6323L31 19Z" fill="#2F80ED"/>
</g>
<defs>
<clipPath id="clip0">
<rect width="45" height="45" fill="white"/>
</clipPath>
</defs>
</svg>
